<?xml version="1.0" standalone="no"?>
<!DOCTYPE svg PUBLIC "-//W3C//DTD SVG 20010904//EN"
 "http://www.w3.org/TR/2001/REC-SVG-20010904/DTD/svg10.dtd">
<svg version="1.0" xmlns="http://www.w3.org/2000/svg"
 width="1024.000000pt" height="1024.000000pt" viewBox="0 0 1024.000000 1024.000000"
 preserveAspectRatio="xMidYMid meet">

<g transform="translate(0.000000,1024.000000) scale(0.100000,-0.100000)"
fill="#000000" stroke="none">
<path d="M3304 8063 c4 -15 19 -64 34 -108 21 -61 32 -81 47 -83 17 -2 25 12
50 90 41 127 40 120 14 116 -18 -2 -27 -16 -42 -61 -10 -32 -22 -55 -25 -52
-4 4 -16 32 -27 63 -13 37 -26 58 -38 60 -16 3 -18 -1 -13 -25z"/>
<path d="M3530 8083 c-26 -10 -30 -25 -30 -115 l0 -88 81 0 c71 0 80 2 77 18
-2 13 -15 18 -56 20 -48 3 -52 5 -52 28 0 22 4 24 51 24 43 0 50 3 47 18 -2
13 -15 18 -51 20 -39 3 -47 6 -47 23 0 16 7 19 56 19 47 0 55 3 52 18 -2 13
-15 17 -58 19 -30 1 -62 -1 -70 -4z"/>
<path d="M3700 7985 c0 -98 1 -105 20 -105 17 0 20 7 20 40 0 36 3 40 25 40
26 0 45 -25 45 -59 0 -16 6 -21 25 -21 21 0 25 5 25 28 0 15 -7 37 -15 49 -13
18 -13 22 0 33 18 15 19 50 2 74 -9 12 -31 18 -80 22 l-67 4 0 -105z m108 38
c3 -20 -1 -23 -32 -23 -28 0 -36 4 -36 18 0 26 10 33 40 30 17 -2 26 -10 28
-25z"/>
<path d="M4380 8070 c-41 -41 -18 -90 50 -107 25 -7 35 -15 35 -29 0 -24 -46
-32 -65 -10 -16 20 -40 21 -40 2 0 -20 27 -45 57 -52 36 -9 75 7 92 38 14 25
14 29 -5 54 -11 16 -37 32 -60 39 -23 6 -39 17 -39 25 0 21 39 24 55 5 14 -17
50 -21 50 -5 0 6 -11 22 -25 35 -30 31 -77 33 -105 5z"/>
<path d="M4647 8038 c-4 -29 -7 -77 -7 -105 l0 -53 80 0 c73 0 80 2 80 20 0
18 -7 20 -55 20 -52 0 -55 1 -55 25 0 23 3 25 51 25 43 0 50 3 47 17 -2 10
-10 18 -18 19 -8 1 -30 2 -47 2 -26 2 -33 6 -33 21 0 17 8 20 53 23 38 2 52 7
52 18 0 12 -16 16 -71 18 l-71 3 -6 -53z"/>
<path d="M4883 8082 c-68 -3 -88 -25 -33 -35 l30 -6 0 -81 c0 -73 2 -80 20
-80 17 0 19 8 22 83 3 81 3 82 31 85 30 4 40 38 10 37 -10 0 -46 -1 -80 -3z"/>
<path d="M5125 8065 c-41 -41 -27 -76 40 -99 27 -10 40 -20 40 -33 0 -23 -37
-29 -58 -9 -20 20 -47 21 -47 2 0 -21 48 -56 76 -56 38 0 74 22 81 49 9 35
-16 74 -53 82 -40 8 -54 17 -54 35 0 20 47 18 58 -3 6 -10 16 -14 26 -10 21 8
20 23 -4 47 -28 28 -75 26 -105 -5z"/>
<path d="M5338 8074 c-51 -27 -63 -139 -19 -178 31 -28 82 -31 114 -6 31 24
37 60 9 60 -9 0 -23 -9 -30 -20 -28 -46 -77 -13 -77 52 0 58 44 87 79 52 9 -8
26 -14 38 -12 22 3 22 4 -9 36 -34 35 -63 40 -105 16z"/>
<path d="M3900 7980 l0 -100 25 0 25 0 0 100 0 100 -25 0 -25 0 0 -100z"/>
<path d="M3980 8066 c0 -9 12 -16 28 -18 27 -3 27 -4 30 -85 2 -74 5 -83 22
-83 17 0 20 9 22 83 3 81 3 82 31 85 15 2 27 9 27 18 0 11 -17 14 -80 14 -63
0 -80 -3 -80 -14z"/>
<path d="M4205 8068 c-2 -7 -18 -50 -35 -96 -16 -46 -30 -85 -30 -88 0 -2 11
-4 24 -4 15 0 26 7 29 20 4 15 14 20 42 20 28 0 38 -5 42 -20 4 -13 14 -20 30
-20 28 0 28 -6 -16 117 -25 68 -32 78 -55 81 -15 2 -28 -2 -31 -10z m44 -100
c1 -10 -6 -18 -14 -18 -16 0 -18 12 -8 49 6 23 7 23 14 5 4 -10 8 -27 8 -36z"/>
<path d="M5510 7980 c0 -93 1 -100 20 -100 19 0 20 7 20 100 0 93 -1 100 -20
100 -19 0 -20 -7 -20 -100z"/>
<path d="M5600 7980 l0 -100 75 0 c68 0 75 2 75 20 0 18 -7 20 -55 20 -52 0
-55 1 -55 25 0 23 3 25 50 25 37 0 50 4 50 15 0 10 -16 16 -50 21 -39 5 -50
10 -48 23 2 12 17 17 56 19 37 2 52 7 52 18 0 11 -16 14 -75 14 l-75 0 0 -100z"/>
<path d="M5790 7980 c0 -98 1 -100 23 -100 22 0 23 4 23 60 -1 65 -1 65 46
-14 18 -31 34 -46 48 -46 19 0 20 6 20 100 0 92 -1 100 -20 100 -16 0 -19 -8
-22 -57 l-3 -58 -33 58 c-26 45 -39 57 -58 57 -24 0 -24 -1 -24 -100z"/>
<path d="M5990 8061 c0 -14 6 -17 25 -13 l25 4 0 -86 c0 -85 0 -86 25 -86 25
0 25 1 25 85 0 83 1 85 24 85 13 0 26 7 30 15 4 13 -8 15 -74 15 -71 0 -80 -2
-80 -19z"/>
<path d="M6180 8026 c0 -29 -3 -74 -6 -100 -7 -45 -6 -46 20 -46 l26 0 0 100
c0 93 -1 100 -20 100 -18 0 -20 -7 -20 -54z"/>
<path d="M6305 8028 c-10 -29 -26 -75 -36 -101 -18 -44 -18 -48 -2 -54 11 -4
23 3 37 20 29 36 73 37 86 2 9 -24 50 -37 50 -16 0 5 -15 51 -34 102 -29 82
-37 94 -59 97 -22 3 -27 -3 -42 -50z m54 -38 c9 -28 8 -30 -14 -30 -22 0 -23
2 -14 30 6 17 12 30 14 30 2 0 8 -13 14 -30z"/>
<path d="M3293 6228 c4 -1771 -1 -1645 72 -1859 20 -57 54 -141 76 -186 85
-173 262 -405 316 -416 15 -3 29 -4 30 -3 1 1 -34 44 -78 96 -198 234 -306
458 -354 727 -13 75 -15 227 -15 1016 l0 927 365 0 365 0 0 -164 0 -164 -66
-58 c-36 -32 -74 -75 -85 -96 -25 -50 -42 -142 -34 -185 6 -32 7 -33 55 -33
l50 0 0 -54 c0 -30 -3 -56 -7 -59 -5 -2 -34 -1 -65 1 -54 4 -58 6 -58 28 0 14
7 27 15 30 46 18 -22 58 -79 47 -37 -7 -83 -56 -97 -104 -10 -32 -21 -44 -57
-62 -25 -12 -55 -35 -66 -50 -19 -26 -19 -30 -6 -55 9 -15 41 -40 73 -56 49
-25 57 -33 57 -57 0 -61 83 -117 154 -103 37 6 48 27 21 38 -18 7 -20 37 -3
54 7 7 36 12 65 12 l54 0 -3 -97 -3 -96 -83 2 c-61 2 -83 -1 -87 -11 -3 -8 5
-72 19 -143 57 -307 159 -835 196 -1020 25 -123 40 -228 40 -272 0 -64 2 -73
19 -73 16 0 19 11 24 78 3 42 28 190 56 327 57 286 197 1009 207 1073 l7 42
-92 0 -92 0 3 93 3 92 57 3 c54 3 58 2 64 -23 4 -18 1 -32 -11 -45 -22 -25
-17 -30 34 -37 54 -7 103 23 125 77 9 22 16 47 16 54 0 8 13 17 29 21 33 7
111 70 111 90 0 17 -65 74 -103 90 -22 9 -34 24 -46 61 -11 34 -26 55 -50 71
-35 24 -94 30 -121 13 -12 -8 -12 -11 3 -28 38 -42 14 -72 -60 -72 l-53 0 0
60 0 60 44 0 c59 0 66 11 56 97 -11 100 -39 152 -115 213 -34 27 -66 57 -69
66 -3 9 -6 85 -6 170 l0 154 385 0 385 0 0 -1290 c0 -709 3 -1290 6 -1290 4 0
57 28 117 63 130 73 294 188 437 306 98 81 430 415 430 432 0 5 -214 9 -475 9
l-475 0 0 95 0 95 554 0 554 0 67 96 c77 112 145 221 145 233 0 5 -108 75
-240 157 -132 82 -240 151 -240 154 0 4 60 33 133 65 72 32 227 103 342 157
l210 98 3 955 2 955 -1580 0 -1581 0 4 -1592z m414 1386 c76 -31 242 -96 368
-144 446 -170 445 -170 445 -191 0 -25 -8 -24 -83 7 -63 26 -517 200 -727 279
-63 24 -127 48 -142 54 -20 7 -25 15 -21 30 3 12 9 21 13 21 5 0 71 -25 147
-56z m2458 35 c4 -11 5 -22 3 -23 -1 -1 -57 -22 -123 -46 -145 -52 -751 -287
-778 -302 -17 -9 -18 -7 -12 14 4 12 9 25 11 26 2 4 195 80 578 228 92 36 198
79 235 95 80 34 78 34 86 8z m-1265 -69 c0 -27 3 -30 30 -30 40 0 38 -18 -2
-22 -29 -3 -33 -7 -37 -38 l-4 -35 -6 35 c-5 31 -10 35 -38 38 -42 4 -43 22
-3 22 26 0 31 5 37 30 3 17 9 30 14 30 5 0 9 -13 9 -30z m-1040 -114 l135 -52
-1 -60 c-1 -65 -30 -177 -45 -169 -5 4 -2 22 6 42 8 20 14 37 13 38 -14 10
-74 35 -84 35 -7 0 -18 -18 -24 -40 -7 -27 -15 -37 -24 -34 -11 4 -12 13 -5
37 14 50 11 57 -26 73 -48 20 -50 19 -68 -26 -15 -38 -30 -50 -41 -32 -2 4 3
26 13 47 l18 40 -29 18 c-42 26 -56 21 -74 -23 -15 -37 -34 -54 -34 -30 0 30
105 190 124 189 6 0 72 -24 146 -53z m2234 -65 c38 -65 43 -81 26 -81 -6 0
-17 18 -26 40 -18 45 -21 46 -69 26 l-34 -15 16 -41 c12 -30 13 -44 5 -52 -8
-8 -15 0 -28 31 -9 22 -20 41 -25 41 -10 0 -89 -31 -89 -35 0 -1 7 -21 15 -44
19 -56 -5 -57 -30 -2 l-17 39 -42 -18 c-42 -18 -43 -22 -32 -75 6 -29 5 -29
-10 5 -22 47 -40 178 -27 191 5 5 70 32 144 59 l134 49 26 -28 c15 -16 43 -57
63 -90z m-1146 2 c-19 -41 -53 -83 -68 -83 -10 0 -23 12 -30 29 -6 16 -19 33
-28 37 -14 6 -13 8 8 14 33 10 123 12 118 3z m121 -15 c54 -12 62 -21 33 -37
-10 -5 -24 -21 -31 -34 -9 -17 -19 -23 -32 -20 -10 3 -16 9 -14 14 3 4 -1 25
-10 45 -22 52 -24 50 54 32z m-309 -5 c-1 -5 -7 -19 -14 -32 -8 -14 -12 -31
-9 -38 3 -8 -2 -13 -13 -13 -24 0 -81 68 -62 74 7 3 20 7 28 9 24 8 70 8 70 0z
m-172 -78 c-1 -31 -5 -45 -15 -45 -7 0 -13 4 -13 9 0 5 -3 22 -6 39 -5 24 -2
31 12 35 11 3 20 5 21 6 0 0 1 -19 1 -44z m232 14 c0 -5 -9 -9 -20 -9 -19 0
-27 20 -13 33 7 8 33 -11 33 -24z m157 16 c7 -20 -2 -29 -21 -22 -9 4 -13 13
-10 22 8 19 23 19 31 0z m232 6 c19 -12 5 -93 -16 -89 -11 2 -16 16 -17 51 -1
46 6 55 33 38z m871 -55 c0 -18 -17 8 -24 34 l-7 25 15 -25 c9 -14 15 -29 16
-34z m-1430 8 c0 -8 -7 -14 -15 -14 -15 0 -21 21 -9 33 10 9 24 -2 24 -19z
m490 17 c0 -22 -13 -39 -26 -34 -10 4 -11 10 -3 24 10 20 29 26 29 10z m-47
-71 c53 -17 97 -36 97 -43 0 -6 -12 -23 -26 -38 -14 -15 -37 -49 -50 -76 l-23
-48 -1 45 c0 47 -21 150 -30 150 -9 -1 -69 -95 -81 -128 -15 -45 -26 -40 -31
16 -3 26 -15 64 -28 85 l-23 38 -18 -28 c-19 -28 -31 -62 -44 -118 -6 -29 -7
-29 -24 21 -16 47 -57 112 -73 113 -15 2 -40 -90 -36 -133 2 -25 0 -46 -4 -46
-4 0 -17 19 -29 43 -12 23 -37 59 -57 79 l-36 38 38 15 c21 9 77 25 125 35
120 27 226 21 354 -20z m-183 -137 c0 -26 -3 -30 -19 -26 -16 4 -17 9 -8 45
11 45 27 34 27 -19z m-135 -5 c7 -34 5 -38 -14 -38 -18 0 -21 6 -21 38 0 67
23 66 35 0z m275 -2 c0 -39 -2 -44 -20 -39 -22 6 -25 19 -10 57 15 40 30 31
30 -18z m-862 14 c45 -42 48 -135 6 -181 -10 -11 -15 -21 -12 -24 3 -3 87 26
186 65 166 65 202 74 202 51 0 -5 -66 -34 -147 -64 -194 -73 -223 -85 -223
-97 0 -6 9 -10 20 -10 35 0 81 -51 87 -95 4 -34 1 -46 -21 -72 -30 -36 -71
-48 -109 -34 -36 14 -50 45 -48 113 1 45 -2 58 -14 58 -8 0 -18 -12 -21 -27
-17 -72 -88 -117 -146 -94 -36 14 -68 66 -68 112 0 71 91 120 161 85 47 -23
61 -5 25 33 -34 35 -46 108 -25 147 28 52 107 71 147 34z m1466 -1 c50 -40 51
-133 1 -177 -15 -13 -24 -29 -21 -37 4 -12 10 -12 40 0 20 8 47 15 61 15 34 0
82 -25 95 -49 25 -48 -2 -135 -51 -161 -50 -27 -138 27 -155 96 -4 16 -12 24
-23 21 -9 -2 -14 -10 -12 -18 1 -8 3 -36 4 -63 1 -41 -3 -52 -27 -72 -68 -59
-171 6 -151 96 9 43 52 90 81 90 47 0 23 18 -73 55 -188 72 -208 82 -211 104
-3 18 0 20 20 12 13 -5 83 -34 157 -65 74 -30 138 -53 142 -50 5 3 -1 19 -11
37 -34 54 -24 141 19 174 25 20 85 15 115 -8z m-1020 -24 c22 -33 20 -55 -4
-55 -11 0 -20 4 -20 9 0 5 -3 23 -6 40 -8 38 7 41 30 6z m536 -25 c0 -33 -3
-40 -20 -40 -24 0 -24 1 -6 45 19 45 26 44 26 -5z m-95 -60 c44 -12 82 -23 84
-26 3 -2 -14 -20 -36 -39 -22 -19 -48 -53 -57 -75 -20 -50 -41 -44 -42 13 0
36 -36 137 -49 137 -9 0 -63 -107 -70 -137 -8 -41 -35 -44 -35 -4 0 31 -50
133 -66 133 -18 0 -54 -85 -54 -129 0 -51 -14 -56 -29 -10 -13 38 -74 102 -89
93 -5 -3 -13 1 -16 9 -7 18 14 28 111 49 90 21 242 14 348 -14z m-245 -132 c0
-21 -5 -28 -20 -28 -16 0 -20 7 -20 34 0 19 3 42 7 51 5 15 8 14 19 -6 7 -13
13 -36 14 -51z m152 30 c6 -37 -2 -58 -23 -58 -22 0 -24 18 -7 55 14 31 24 32
30 3z m-303 -45 c8 -27 7 -39 -1 -44 -20 -12 -28 0 -28 42 0 49 16 51 29 2z
m455 -17 c-6 -37 -26 -44 -32 -12 -4 17 27 61 35 52 2 -2 1 -20 -3 -40z"/>
<path d="M7126 7584 c-192 -46 -353 -220 -386 -415 -16 -95 -8 -181 28 -271
21 -56 298 -532 410 -706 16 -25 34 -15 -363 -196 -756 -345 -895 -410 -895
-417 0 -6 71 -52 333 -213 42 -27 80 -52 83 -57 10 -16 -145 -257 -282 -439
-266 -353 -587 -655 -919 -865 -229 -144 -516 -262 -765 -316 -139 -30 -460
-34 -582 -7 -160 36 -292 103 -410 210 -82 74 -161 210 -199 340 -38 133 -35
333 6 486 3 9 -4 -1 -14 -23 -60 -123 -106 -364 -97 -505 30 -469 373 -796
918 -876 139 -20 486 -15 615 9 274 52 522 132 750 242 413 199 712 421 1083
801 146 149 255 281 382 461 44 62 83 113 87 113 3 0 40 -25 81 -57 41 -31
130 -96 198 -145 l122 -88 0 753 0 752 176 285 c213 346 246 405 274 495 74
236 -45 501 -274 609 -119 57 -237 70 -360 40z m203 -270 c129 -38 204 -171
167 -297 -42 -146 -174 -218 -320 -175 -26 8 -60 31 -91 63 -54 54 -75 102
-75 175 0 106 63 197 160 230 68 24 92 24 159 4z"/>
<path d="M6200 4037 c-76 -72 -295 -239 -420 -319 -267 -171 -562 -309 -797
-374 l-103 -29 0 -58 0 -59 -42 7 c-24 4 -86 17 -138 31 -68 17 -104 22 -125
16 -28 -8 -23 -11 65 -40 240 -81 410 -65 720 64 281 117 599 368 790 621 78
105 138 203 123 203 -4 -1 -37 -29 -73 -63z"/>
<path d="M2510 2875 c0 -13 290 -15 2553 -15 2263 0 2554 2 2554 15 0 13 -291
15 -2554 15 -2263 0 -2553 -2 -2553 -15z"/>
<path d="M3578 2631 c-103 -34 -158 -123 -158 -256 0 -117 49 -212 127 -247
100 -44 218 -6 261 86 27 56 27 55 0 65 -65 24 -67 24 -82 -13 -40 -96 -167
-81 -196 23 -23 83 -10 179 30 221 23 25 36 30 73 30 44 0 59 -9 100 -61 10
-14 19 -14 54 -5 l43 11 -24 52 c-19 40 -34 57 -66 73 -47 24 -122 34 -162 21z"/>
<path d="M4574 2631 c-95 -24 -154 -107 -162 -227 -11 -175 72 -293 206 -294
78 0 139 36 173 102 26 50 25 55 -17 73 -48 20 -48 20 -63 -20 -30 -85 -152
-84 -187 2 -17 39 -20 165 -6 203 12 31 50 66 80 73 40 9 91 -11 108 -45 15
-28 18 -30 57 -24 23 4 43 9 45 11 7 7 -18 63 -40 91 -37 47 -126 72 -194 55z"/>
<path d="M6946 2629 c-90 -22 -151 -108 -163 -231 -17 -189 116 -323 277 -278
56 15 120 93 120 145 0 7 -11 16 -24 19 -13 3 -31 9 -39 12 -11 4 -22 -6 -36
-34 -47 -91 -162 -74 -191 29 -16 55 -12 150 8 189 10 21 32 42 54 53 50 25
101 9 129 -38 19 -32 21 -32 59 -23 42 11 48 24 29 61 -41 80 -131 118 -223
96z"/>
<path d="M2968 2623 c-16 -4 -18 -21 -18 -163 0 -186 11 -249 51 -294 73 -84
249 -70 304 24 18 32 20 52 20 235 l0 200 -45 0 -45 0 -5 -192 c-6 -216 -7
-221 -77 -230 -32 -4 -45 -1 -69 20 l-29 25 -5 189 -5 188 -30 2 c-16 0 -38
-1 -47 -4z"/>
<path d="M4066 2621 c-4 -6 -42 -113 -85 -238 -44 -125 -82 -236 -86 -245 -6
-16 -1 -18 48 -18 l54 0 15 53 15 52 90 3 91 3 16 -56 17 -55 54 0 c30 0 55 2
55 4 0 2 -7 21 -17 42 -9 22 -49 134 -88 249 l-73 210 -50 3 c-28 2 -53 -2
-56 -7z m83 -214 l30 -87 -61 0 c-44 0 -59 3 -55 13 2 6 14 47 27 90 13 42 25
76 27 74 2 -2 16 -43 32 -90z"/>
<path d="M5009 2610 c-76 -41 -119 -127 -119 -239 0 -147 73 -243 197 -258
154 -18 265 108 250 284 -7 86 -46 166 -100 201 -55 36 -172 43 -228 12z m171
-88 c60 -44 79 -163 41 -249 -44 -96 -167 -98 -216 -3 -21 41 -20 165 3 210
32 66 112 85 172 42z"/>
<path d="M2520 2370 l0 -250 50 0 50 0 0 90 0 90 73 0 c124 0 182 51 181 160
0 66 -23 113 -67 140 -27 17 -51 20 -159 20 l-128 0 0 -250z m208 159 c54 -19
63 -102 13 -128 -11 -6 -42 -11 -70 -11 l-51 0 0 75 0 75 39 0 c21 0 52 -5 69
-11z"/>
<path d="M5428 2435 c-1 -102 -2 -213 -3 -247 l0 -63 42 -3 43 -3 2 168 3 168
65 -117 c36 -64 77 -140 92 -167 28 -51 28 -51 78 -51 l49 0 0 250 0 250 -45
0 -44 0 0 -162 c-1 -191 8 -193 -112 20 l-81 142 -43 0 -44 0 -2 -185z"/>
<path d="M5906 2598 c-3 -13 -6 -125 -6 -250 l0 -228 45 0 45 0 2 167 3 167
61 -109 c34 -61 74 -135 90 -165 28 -54 30 -55 77 -58 l47 -3 0 250 0 251 -40
0 -40 0 0 -161 c0 -89 -4 -158 -9 -155 -5 3 -48 75 -97 161 l-89 155 -41 0
c-35 0 -43 -4 -48 -22z"/>
<path d="M6380 2370 l0 -250 170 0 170 0 0 45 0 45 -120 0 -120 0 0 65 0 65
105 0 105 0 0 43 0 42 -81 -3 c-123 -5 -129 -2 -129 63 l0 54 113 -2 112 -2 3
43 3 42 -165 0 -166 0 0 -250z"/>
<path d="M7230 2580 l0 -40 70 0 70 0 0 -210 0 -210 45 0 45 0 2 208 3 207 68
3 67 3 0 39 0 40 -185 0 -185 0 0 -40z"/>
<path d="M2784 1963 c-50 -10 -74 -77 -40 -111 9 -9 45 -26 79 -37 58 -19 62
-22 62 -50 0 -61 -100 -72 -130 -14 -9 16 -20 29 -25 29 -19 0 -10 -41 15 -65
19 -20 34 -25 73 -25 64 0 102 28 102 74 0 41 -23 63 -85 82 -57 17 -75 30
-75 55 0 42 69 51 106 14 22 -22 54 -34 54 -20 0 18 -36 55 -62 64 -32 11 -37
11 -74 4z"/>
<path d="M5622 1958 c-13 -13 -16 -38 -6 -38 8 0 33 32 34 43 0 11 -15 8 -28
-5z"/>
<path d="M2980 1945 c0 -8 5 -15 10 -15 6 0 10 7 10 15 0 8 -4 15 -10 15 -5 0
-10 -7 -10 -15z"/>
<path d="M4330 1911 l0 -49 -30 14 c-25 13 -34 13 -57 2 -52 -25 -64 -121 -21
-167 21 -23 77 -28 96 -9 9 9 12 9 12 0 0 -7 7 -12 15 -12 13 0 15 22 15 135
0 113 -2 135 -15 135 -11 0 -15 -12 -15 -49z m-18 -68 c23 -21 24 -89 1 -115
-23 -25 -48 -22 -72 8 -25 32 -26 55 -6 94 18 34 48 39 77 13z"/>
<path d="M5457 1954 c-8 -8 1 -24 14 -24 5 0 9 7 9 15 0 15 -12 20 -23 9z"/>
<path d="M6190 1910 c0 -54 -4 -58 -31 -35 -22 21 -65 10 -86 -22 -9 -13 -16
-42 -16 -64 0 -73 58 -118 113 -89 13 7 20 7 20 0 0 -5 7 -10 15 -10 13 0 15
22 15 135 0 113 -2 135 -15 135 -11 0 -15 -12 -15 -50z m-16 -72 c37 -52 5
-137 -46 -125 -45 12 -61 93 -26 134 16 20 55 15 72 -9z"/>
<path d="M3263 1939 c-7 -7 -13 -20 -13 -29 0 -9 -6 -22 -12 -29 -10 -11 -10
-14 0 -18 8 -3 12 -27 12 -73 0 -87 5 -100 41 -100 33 0 39 19 9 27 -18 5 -20
14 -20 74 0 62 2 69 20 69 26 0 26 17 1 25 -13 4 -21 17 -23 36 -2 24 -5 28
-15 18z"/>
<path d="M5363 1939 c-7 -7 -13 -23 -13 -35 0 -12 -6 -25 -12 -28 -10 -5 -10
-7 0 -12 8 -4 12 -29 12 -74 0 -87 5 -100 41 -100 33 0 39 19 9 27 -18 5 -20
14 -20 74 0 55 3 69 15 69 8 0 15 7 15 15 0 8 -6 12 -14 9 -11 -4 -16 4 -18
31 -2 29 -5 34 -15 24z"/>
<path d="M6942 1937 c-8 -9 -12 -22 -10 -29 3 -7 -2 -18 -11 -25 -15 -11 -14
-13 1 -25 13 -10 18 -31 20 -88 3 -74 4 -75 31 -78 19 -2 27 1 27 12 0 9 -9
16 -20 16 -18 0 -20 7 -20 70 0 63 2 70 20 70 26 0 26 16 1 23 -13 3 -21 15
-23 38 -3 29 -5 30 -16 16z"/>
<path d="M3083 1880 c-27 -11 -40 -54 -23 -75 6 -7 34 -21 61 -30 42 -14 50
-21 47 -38 -2 -12 -11 -23 -21 -25 -30 -6 -67 7 -67 23 0 8 -7 15 -15 15 -20
0 -19 -24 1 -44 22 -23 96 -21 117 2 37 41 11 82 -61 97 -39 8 -51 30 -28 53
15 15 19 15 51 -2 42 -23 60 -12 26 15 -25 20 -53 23 -88 9z"/>
<path d="M3388 1875 c-44 -24 -55 -107 -20 -154 28 -38 98 -42 132 -6 20 21
21 25 6 25 -10 0 -24 -7 -32 -15 -16 -16 -52 -20 -70 -7 -16 10 -34 48 -27 56
3 3 37 6 75 6 66 0 68 1 68 26 0 32 -50 84 -82 84 -13 -1 -35 -7 -50 -15z m86
-31 c31 -31 20 -44 -39 -44 -46 0 -55 3 -55 18 0 41 63 58 94 26z"/>
<path d="M3620 1873 c-17 -12 -25 -13 -28 -5 -2 7 -8 12 -13 12 -5 0 -9 -43
-9 -95 0 -78 3 -95 15 -95 12 0 15 15 15 74 0 80 11 100 52 94 27 -4 36 -30
37 -110 1 -32 6 -58 11 -58 6 0 10 28 10 63 0 67 18 107 49 107 32 0 41 -22
41 -97 0 -58 3 -73 15 -73 12 0 15 16 15 80 0 67 -3 83 -20 100 -24 24 -48 25
-78 4 -20 -14 -24 -14 -44 0 -28 20 -38 20 -68 -1z"/>
<path d="M3913 1875 c-13 -9 -23 -23 -23 -31 0 -18 14 -18 29 0 26 31 91 22
91 -13 0 -21 -18 -31 -59 -31 -57 0 -94 -63 -59 -98 14 -14 77 -16 97 -3 9 6
21 5 32 -2 10 -6 20 -9 22 -7 8 11 -9 170 -19 180 -20 20 -87 23 -111 5z m76
-148 c-33 -26 -74 -19 -74 13 0 21 7 27 45 36 42 10 45 9 48 -10 3 -12 -5 -28
-19 -39z"/>
<path d="M4439 1861 c-24 -24 -29 -38 -29 -76 0 -61 32 -95 90 -95 39 0 80 26
80 50 0 17 -26 11 -45 -10 -10 -11 -25 -20 -34 -20 -26 0 -61 29 -61 51 0 17
7 19 70 19 64 0 70 2 70 20 0 81 -84 117 -141 61z m99 -19 c25 -32 14 -42 -43
-42 -63 0 -72 15 -29 49 27 21 51 19 72 -7z"/>
<path d="M4764 1878 c-49 -23 -59 -109 -18 -157 27 -32 52 -38 86 -20 25 14
32 7 24 -26 -10 -38 -48 -52 -81 -31 -36 24 -54 15 -27 -12 39 -39 113 -22
132 31 5 16 10 72 10 123 0 77 -3 94 -15 94 -8 0 -15 -5 -15 -11 0 -5 -10 -3
-22 5 -26 18 -44 19 -74 4z m73 -30 c16 -15 23 -33 23 -57 0 -42 -7 -54 -38
-70 -19 -10 -26 -8 -47 13 -31 31 -32 74 -4 110 25 32 36 32 66 4z"/>
<path d="M4983 1876 c-35 -16 -60 -75 -50 -118 18 -69 109 -94 157 -43 23 24
23 25 3 25 -11 0 -26 -7 -33 -15 -25 -31 -85 -11 -92 30 -3 18 3 20 71 23 l73
3 -6 32 c-12 61 -66 88 -123 63z m79 -33 c34 -31 23 -43 -42 -43 -52 0 -59 2
-53 18 16 45 60 57 95 25z"/>
<path d="M5172 1874 c-44 -31 -20 -85 45 -99 42 -8 60 -30 43 -50 -18 -21 -66
-19 -82 4 -8 12 -19 17 -26 12 -9 -5 -6 -13 8 -29 41 -44 140 -18 140 37 0 25
-19 39 -71 54 -33 10 -44 18 -44 32 0 25 38 32 71 14 33 -17 44 -1 15 22 -28
23 -69 24 -99 3z"/>
<path d="M5559 1861 c-33 -34 -39 -83 -14 -130 16 -33 33 -41 80 -41 61 0 100
80 70 143 -29 61 -90 74 -136 28z m88 -6 c40 -28 39 -111 -1 -137 -65 -44
-122 82 -60 131 32 25 34 25 61 6z"/>
<path d="M5796 1873 c-13 -13 -20 -15 -23 -5 -13 36 -23 1 -23 -83 0 -78 3
-95 15 -95 12 0 15 14 15 66 0 81 11 104 50 104 39 0 50 -23 50 -104 0 -37 4
-66 10 -66 6 0 10 34 10 83 0 69 -3 87 -18 100 -24 22 -63 22 -86 0z"/>
<path d="M6314 1878 c-48 -23 -63 -108 -26 -157 13 -18 30 -27 56 -29 41 -4
86 19 86 43 0 21 -14 19 -35 -5 -10 -11 -25 -20 -34 -20 -26 0 -61 29 -61 51
0 17 7 19 71 19 l72 0 -7 33 c-11 60 -69 91 -122 65z m80 -40 c24 -34 20 -38
-39 -38 -57 0 -63 6 -45 41 15 27 64 25 84 -3z"/>
<path d="M6598 1884 c-3 -5 -6 -51 -7 -101 -2 -78 0 -93 13 -93 13 0 16 13 16
68 0 71 9 90 53 105 10 4 15 11 12 17 -9 15 -31 12 -45 -5 -11 -14 -14 -13
-25 1 -6 10 -14 13 -17 8z"/>
<path d="M6726 1883 c-13 -14 -6 -148 10 -171 16 -24 53 -29 84 -12 13 7 21 7
25 0 17 -28 25 -1 25 91 0 76 -3 100 -12 97 -8 -3 -14 -30 -16 -74 -3 -71 -19
-104 -52 -104 -31 0 -40 23 -40 96 0 67 -8 93 -24 77z"/>
<path d="M7062 1874 c-12 -8 -22 -22 -22 -30 0 -19 6 -18 39 6 22 17 32 19 54
11 42 -16 36 -49 -10 -56 -79 -12 -109 -46 -83 -94 12 -24 77 -30 98 -9 9 9
15 9 24 0 28 -28 35 -13 30 71 -3 67 -8 85 -24 100 -25 21 -76 22 -106 1z m98
-114 c0 -34 -26 -53 -68 -48 -21 2 -27 8 -27 28 0 20 7 27 40 36 56 17 55 17
55 -16z"/>
<path d="M7260 1870 c-40 -40 -15 -82 59 -96 37 -8 49 -27 31 -49 -18 -21 -58
-19 -72 5 -15 23 -38 27 -38 6 0 -27 30 -46 74 -46 49 0 76 22 76 62 0 24 -32
48 -64 48 -8 0 -24 8 -36 18 -21 17 -21 19 -5 35 21 22 27 21 57 -2 14 -12 29
-16 37 -12 19 12 -35 51 -70 51 -16 0 -38 -9 -49 -20z"/>
<path d="M2970 1823 c0 -32 3 -75 6 -95 12 -69 24 -39 24 57 0 78 -3 95 -15
95 -12 0 -15 -13 -15 -57z"/>
<path d="M5450 1823 c0 -32 3 -75 6 -95 12 -69 24 -39 24 57 0 78 -3 95 -15
95 -12 0 -15 -13 -15 -57z"/>
</g>
</svg>
